<?xml version="1.0" encoding="utf-8"?>
<!-- Generator: Adobe Illustrator 22.1.0, SVG Export Plug-In . SVG Version: 6.00 Build 0)  -->
<svg version="1.1" id="Layer_1" xmlns="http://www.w3.org/2000/svg" xmlns:xlink="http://www.w3.org/1999/xlink" x="0px" y="0px"
	 viewBox="0 0 190.6 96.2" style="enable-background:new 0 0 190.6 96.2;" xml:space="preserve">
<style type="text/css">
	.st0{fill:#FFFFFF;}
</style>
<path class="st0" d="M37.7,43.8c-1.6-1.7-3.5-2.6-5.6-2.6c-1.7,0-3.2,0.6-4.5,1.8c-1.2,1.2-1.8,2.7-1.8,4.5c0,1.2,0.3,2.3,0.8,3.3
	c0.5,1,1.3,1.7,2.3,2.3c1,0.5,2.1,0.8,3.3,0.8c1,0,2-0.2,2.8-0.6c0.8-0.4,1.7-1.1,2.7-2c0.1,0.1,2.1,2.2,2.2,2.3
	c-1.3,1.3-2.6,2.2-3.7,2.7C35,56.8,33.7,57,32.1,57c-2.8,0-5.1-0.9-6.9-2.7c-1.8-1.8-2.7-4.1-2.7-6.8c0-1.8,0.4-3.4,1.2-4.8
	c0.8-1.4,2-2.5,3.5-3.4c1.5-0.8,3.2-1.3,4.9-1.3c1.5,0,2.9,0.3,4.3,0.9c1.4,0.6,2.5,1.5,3.5,2.6L37.7,43.8z"/>
<path class="st0" d="M44.9,52.8L44.9,52.8c-0.7-0.7-1.1-1.7-1.1-2.9c0-1.2,0.4-2.1,1.1-2.9c0.7-0.7,1.6-1.1,2.7-1.1
	c1.1,0,2,0.4,2.7,1.1c0.7,0.7,1.1,1.7,1.1,2.9c0,1.2-0.4,2.1-1.1,2.9c-0.7,0.8-1.6,1.1-2.7,1.1C46.5,53.9,45.6,53.5,44.9,52.8
	 M42.9,44.7c-1.5,1.4-2.3,3.1-2.3,5.2c0,1.9,0.7,3.6,2,4.9c1.3,1.3,3,2,4.9,2c1.3,0,2.5-0.3,3.6-0.9c1.1-0.6,1.9-1.5,2.6-2.6
	c0.6-1.1,0.9-2.3,0.9-3.5c0-1.2-0.3-2.4-0.9-3.5c-0.6-1.1-1.5-1.9-2.6-2.6c-1.1-0.6-2.3-0.9-3.5-0.9C45.8,42.9,44.2,43.5,42.9,44.7"
	/>
<rect x="56.6" y="38.4" class="st0" width="3.2" height="18.2"/>
<path class="st0" d="M66.1,52.8L66.1,52.8c-0.7-0.7-1.1-1.7-1.1-2.9c0-1.2,0.4-2.1,1.1-2.9c0.7-0.7,1.6-1.1,2.7-1.1
	c1.1,0,2,0.4,2.7,1.1c0.7,0.7,1.1,1.7,1.1,2.9c0,1.2-0.4,2.1-1.1,2.9c-0.7,0.8-1.6,1.1-2.7,1.1C67.7,53.9,66.8,53.5,66.1,52.8
	 M64.1,44.7c-1.5,1.4-2.3,3.1-2.3,5.2c0,1.9,0.7,3.6,2,4.9c1.3,1.3,3,2,4.9,2c1.3,0,2.5-0.3,3.6-0.9c1.1-0.6,1.9-1.5,2.5-2.6
	c0.6-1.1,0.9-2.3,0.9-3.5c0-1.2-0.3-2.4-0.9-3.5c-0.6-1.1-1.5-1.9-2.6-2.6c-1.1-0.6-2.3-0.9-3.5-0.9C67,42.9,65.4,43.5,64.1,44.7"/>
<path class="st0" d="M83.4,43.3L83.4,43.3c-0.6,0.2-1.3,0.7-2.1,1.3l-0.1,0.1v-1.5H78v13.3h3.2v-5.3c0-1.4,0.1-2.3,0.2-2.8
	c0.2-0.8,0.5-1.5,1-1.9c0.5-0.5,1.1-0.7,1.8-0.7c0.5,0,1,0.1,1.4,0.4c0.4,0.3,0.6,0.7,0.8,1.3c0.1,0.5,0.2,1.6,0.2,3.2v5.8h3.2v-8.8
	c0-1.5-0.4-2.7-1.1-3.5c-0.9-0.9-2-1.4-3.3-1.4C84.7,42.9,84,43,83.4,43.3"/>
<rect x="92.8" y="43.2" class="st0" width="3.2" height="13.3"/>
<path class="st0" d="M101.9,49.9c0-1.2,0.4-2.1,1.1-2.9c0.7-0.8,1.6-1.1,2.7-1.1c1.1,0,2,0.4,2.7,1.1c0.7,0.7,1.1,1.7,1.1,2.9
	c0,1.2-0.4,2.2-1.1,3c-0.7,0.8-1.6,1.1-2.7,1.1c-1,0-1.9-0.4-2.7-1.2C102.2,52,101.9,51.1,101.9,49.9 M100.5,44.9L100.5,44.9
	c-1.2,1.3-1.8,3-1.8,5.1c0,2,0.6,3.6,1.9,5c1.3,1.3,2.7,2,4.5,2c0.8,0,1.5-0.1,2.1-0.4c0.6-0.3,1.3-0.7,2-1.3l0.1-0.1v1.5h3.2V43.2
	h-3.2v1.6l-0.1-0.1c-0.6-0.6-1.2-1.1-1.9-1.4c-0.7-0.3-1.4-0.4-2.2-0.4C103.2,42.9,101.7,43.6,100.5,44.9"/>
<rect x="115.6" y="38" class="st0" width="3.2" height="18.5"/>
<polygon class="st0" points="127.7,38 127.7,56.6 136.1,56.6 136.1,53.4 131,53.4 131,38 "/>
<path class="st0" d="M147.2,38.3c-0.5,0.4-0.8,1-0.9,1.7c0,0.3-0.1,1.4-0.1,3.1v0.1h-1.2v2.7h1.2v10.6h3.2V45.9h2.1v-2.7h-2.1l0-1.8
	c0-0.4,0.1-0.7,0.2-0.8c0.2-0.2,0.5-0.3,0.9-0.3c0.3,0,0.7,0.1,1.1,0.2v-2.4c-0.8-0.3-1.6-0.5-2.3-0.5
	C148.5,37.7,147.8,37.9,147.2,38.3"/>
<path class="st0" d="M159.5,45.6c0.9,0,1.7,0.2,2.3,0.7c0.7,0.5,1.1,1.1,1.4,1.9l0,0.1h-7.6l0.1-0.1c0.4-0.8,0.8-1.4,1.3-1.8
	C157.7,45.9,158.5,45.6,159.5,45.6 M154.4,44.9c-1.3,1.3-2,3-2,5.1c0,2,0.7,3.6,2,4.9c1.3,1.3,3,2,5.1,2c1.3,0,2.5-0.2,3.5-0.7
	c1-0.5,1.8-1.2,2.5-2.1c-0.2-0.1-2.6-1.2-2.7-1.3c-0.9,0.9-2,1.3-3.3,1.3c-1.1,0-2-0.3-2.7-0.9c-0.7-0.6-1.1-1.4-1.3-2.3l0-0.1h10.9
	c0-0.1,0-0.6,0-0.6c0-2.2-0.7-4-2-5.3c-1.3-1.3-3-2-5.1-2C157.4,42.9,155.7,43.6,154.4,44.9"/>
<g>
	<path class="st0" d="M138.2,33.9c0,1.7,1,3.1,2.2,3.1c1.2,0,2.2-1.4,2.2-3.1c0-1.7-1-3.1-2.2-3.1C139.2,30.8,138.2,32.2,138.2,33.9
		"/>
	<path class="st0" d="M121.5,29.1c0,2.9,0.8,5.3,1.8,5.3c1,0,1.8-2.4,1.8-5.3c0-2.9-0.8-5.3-1.8-5.3
		C122.3,23.8,121.5,26.2,121.5,29.1"/>
	<path class="st0" d="M91.8,35.1c0,1.5,1.3,2.8,2.8,2.8c1.5,0,2.8-1.3,2.8-2.8c0-1.6-1.3-2.8-2.8-2.8C93.1,32.3,91.8,33.5,91.8,35.1
		"/>
	<path class="st0" d="M105.1,35c1.3,0,2.4-1.6,2.4-3.6c0-2-1.1-3.6-2.4-3.6c-1.4,0-2.5,1.6-2.5,3.6C102.6,33.4,103.7,35,105.1,35"/>
	<path class="st0" d="M130.1,24.3c0,2.2,0.9,4,2.1,4c1.1,0,2.1-1.8,2.1-4c0-2.2-0.9-4-2-4C131,20.4,130.1,22.2,130.1,24.3"/>
	<path class="st0" d="M112.6,26.3c0,2.3,0.8,4.2,1.8,4.2c1,0,1.8-1.9,1.8-4.2c0-2.3-0.8-4.2-1.8-4.2C113.4,22.1,112.6,24,112.6,26.3
		"/>
</g>
<rect x="138.9" y="43.2" class="st0" width="3.2" height="13.3"/>
<g>
	<path class="st0" d="M169.7,55c0,0.9-0.7,1.6-1.6,1.6c-0.9,0-1.6-0.7-1.6-1.6c0-0.9,0.7-1.5,1.6-1.5C169,53.5,169.7,54.2,169.7,55z
		 M166.9,55c0,0.7,0.5,1.3,1.2,1.3c0.7,0,1.2-0.6,1.2-1.3c0-0.7-0.5-1.3-1.2-1.3C167.4,53.7,166.9,54.3,166.9,55z M167.9,55.9h-0.3
		v-1.6c0.2,0,0.3,0,0.6,0c0.3,0,0.4,0,0.5,0.1c0.1,0.1,0.2,0.2,0.2,0.3c0,0.2-0.1,0.3-0.3,0.4v0c0.1,0.1,0.2,0.2,0.3,0.4
		c0,0.2,0.1,0.3,0.1,0.4h-0.3c0-0.1-0.1-0.2-0.1-0.4c0-0.2-0.1-0.3-0.4-0.3h-0.2V55.9z M167.9,55h0.2c0.2,0,0.4-0.1,0.4-0.3
		c0-0.2-0.1-0.3-0.4-0.3c-0.1,0-0.2,0-0.2,0V55z"/>
</g>
</svg>
